<svg xmlns="http://www.w3.org/2000/svg" width="640" height="640" viewBox="0 0 480 480" preserveAspectRatio="xMidYMid meet" xmlns:v="https://vecta.io/nano" fill="#999"><path d="M183.5 195.2c-.3.7-.4 20.9-.3 44.8l.3 43.5H241h57.5l.3-43.9c.2-34.5 0-44.1-1-44.8-.7-.4-26.6-.8-57.6-.8-44.1 0-56.4.3-56.7 1.2zM297 239v43h-56.5H184v-42.3c0-23.3.3-42.7.7-43 .3-.4 25.8-.7 56.5-.7H297v43zm-105 0v35h48 48v-35-35h-48-48v35zm94-12.3v20.7l-12.8-12.7c-12.5-12.3-13-12.7-17.2-12.7s-4.7.4-17.6 13.1c-13 12.9-13.3 13.1-15.5 11.5-1.3-.9-3.9-1.6-5.8-1.6-2.9 0-4.7 1.3-13.2 9.7l-9.9 9.7v-29.2V206h46 46v20.7zm-13.8 10c12.7 12.6 13.8 14 13.8 17.4v3.6l-10.7 1.3c-6 .7-16 2.3-22.3 3.6l-11.5 2.3-7.2-7.2c-4-3.9-7.3-7.6-7.3-8.2 0-1.3 22.7-23.8 25.5-25.3 4.1-2.3 5.9-1.2 19.7 12.5zM231 256.5c4.6 4.6 8.2 8.6 7.9 8.8-.2.2-5 1.8-10.5 3.5-9.1 2.9-11.5 3.2-22.3 3.2H194v-2.8c0-2.1 2-4.7 9.3-11.9 5-5.1 10.3-9.6 11.7-10.1 4-1.5 7 .3 16 9.3zm55 9v6.5l-30.7-.1-30.8-.1 7.5-2.4c9.5-3.1 28.4-7 42.6-8.8 6-.7 11-1.4 11.2-1.5.1 0 .2 2.8.2 6.4zm-78.5-46c-1.4 1.3-2.5 3.6-2.5 5 0 3.5 4.2 7.5 7.8 7.5 1.7 0 3.7-.9 5-2.3 6.7-7.2-3.4-17.2-10.3-10.2zm10.4 2.7c1.3 2.3 1.3 2.9-.2 5.2-1.3 1.9-2.6 2.6-5.1 2.6-4.2 0-5.8-1.9-5.4-6.2.6-6 7.6-7.1 10.7-1.6z"/></svg>